<?xml version="1.0" encoding="utf-8" ?><svg xmlns="http://www.w3.org/2000/svg" xmlns:xlink="http://www.w3.org/1999/xlink" width="1024" height="1024" viewBox="0 0 1024 1024"><path fill="#FCFAF2" d="M0 0L1024 0L1024 1024L0 1024L0 0Z"/><path fill="#4B4A51" d="M259.259 80.5572C266.5 73.4734 267.901 69.0028 277.241 62.7474C295.361 50.6124 318.348 44.0191 340.04 48.4765C358.83 52.3374 371.168 63.4924 381.478 79.0569C411.335 66.6535 448.357 62.1045 480.434 65.0671C519.987 68.7201 573.541 88.6166 605.257 112.474C610.102 116.118 614.996 120.108 619.189 124.485C622.357 127.791 625.208 131.511 628.701 134.481C632.477 137.693 637.578 139.671 641.728 142.428C651.068 148.631 659.037 156.96 666.17 165.535C674.233 166.799 686.711 173.72 694.185 177.494C747.128 204.729 792.855 244.136 827.608 292.478C885.933 372.41 910.049 472.267 894.631 570.007C892.425 584 881.634 633.246 873.513 642.778C872.428 666.123 868.938 684.862 857.091 705.437C861.288 717.415 860.629 728.817 855.054 740.289C852.934 744.65 850.226 748.599 847.121 752.315C858.194 777.6 862.601 801.677 852.31 828.289C832.551 879.386 762.167 919.823 714.493 940.647C597.209 991.874 445.402 993.26 326.586 946.554C272.508 925.297 183.663 874.834 159.256 819.12C148.181 793.839 155.5 765.013 165.252 740.425C169.689 729.238 175.382 718.819 181.359 708.398C174.773 699.166 169.359 688.999 164.205 678.917C139.184 629.404 125.895 574.797 125.366 519.325C124.682 461.706 136.027 403.342 161.43 351.408C164.694 344.734 169.939 332.43 174.962 327.293C165.619 319.894 158.495 310.563 154.082 299.461C147.207 282.164 147.913 262.188 155.324 245.18C162.73 228.183 174.959 216.787 192.078 210.032C191.805 202.899 192.482 195.931 193.127 188.836C189.157 181.234 186.259 173.268 185.363 164.701C183.269 144.677 190.338 124.845 203.011 109.426C217.378 91.9472 237.022 82.6427 259.259 80.5572Z"/><path fill="#B7CDC0" d="M666.17 165.535C674.233 166.799 686.711 173.72 694.185 177.494C747.128 204.729 792.855 244.136 827.608 292.478C885.933 372.41 910.049 472.267 894.631 570.007C892.425 584 881.634 633.246 873.513 642.778C872.09 624.804 869.153 608.018 861.159 591.646C847.605 563.889 823.795 543.877 794.714 533.884C737.033 514.062 676.729 533.521 643.543 584.963C640.225 590.122 637.233 595.484 634.586 601.017C631.329 607.836 628.164 622.593 621.193 625.969C617.814 626.038 598.284 611.781 594.091 609.263C582.532 602.322 569.568 598.15 557.879 591.367C558.055 577.914 560.445 563.793 563.948 550.822C580.803 554.358 602.98 553.884 618.314 545.209C636.995 534.64 644.27 512.179 653.456 494.091C657.522 486.087 662.38 478.508 666.492 470.526C674.562 454.865 680.241 438.088 684.965 421.15C688.024 425.139 690.923 429.52 693.058 434.081C702.362 453.956 683.454 462.174 677.625 478.772C674.734 487.007 674.527 496.599 678.555 504.493C681.256 509.787 685.626 514.145 691.412 515.9C693.65 516.579 696.242 516.809 698.353 515.61C699.737 514.823 701.06 513.303 701.265 511.688C701.849 507.079 694.955 502.291 692.567 498.701C680.117 479.983 707.981 465.94 711.116 449.241C714.144 433.109 702.022 416.752 693.655 404.056C710.25 399.111 724.706 392.358 737.809 380.764C757.816 363.37 770.067 338.721 771.853 312.27C773.321 288.101 766.353 264.544 750.04 246.377C733.169 227.59 710.708 220.36 686.118 219.056C685.286 199.38 677.117 181.504 666.17 165.535Z"/><path fill="#B7CDC0" d="M174.962 327.293L175.779 328.315C175.57 329.476 175.278 330.394 174.839 331.488C168.858 346.403 170.279 365.292 176.714 379.784C184.468 396.838 198.632 410.149 216.134 416.83C227.533 421.15 239.586 422.531 251.69 421.408C255.375 440.14 262.335 456.214 278.757 467.185C290.403 474.966 303.704 477.593 317.442 474.814C326.151 473.052 334.469 469.05 341.845 464.165L341.348 465.054C338.564 469.932 334.491 474.501 331.245 479.121C323.659 489.917 315.152 505.758 318.727 519.436C322.444 533.652 344.582 540.495 336.14 554.802C334.013 558.407 331.254 560.734 327.938 563.144C327.782 563.24 327.626 563.335 327.472 563.432C325.552 564.649 323.473 566.313 323.018 568.698C322.598 570.905 323.118 573.887 324.452 575.724C325.41 577.046 326.787 577.745 328.388 577.948C336.352 578.963 346.789 571.994 352.601 567.124C360.266 560.702 366.709 552.541 367.439 542.196C368.996 520.149 340.951 517.018 361.373 498.5C365.079 495.138 369.029 492.024 372.508 488.42C382.625 478.136 388.685 464.542 389.572 450.143C389.852 444.979 389.467 439.925 388.718 434.818L396.847 435.685C406.087 472.011 398.064 513.263 379.072 545.393C351.962 591.256 301.421 607.147 259.136 634.233C235.82 649.169 212.798 668.21 195.092 689.581C190.094 695.614 185.787 701.954 181.359 708.398C174.773 699.166 169.359 688.999 164.205 678.917C139.184 629.404 125.895 574.797 125.366 519.325C124.682 461.706 136.027 403.342 161.43 351.408C164.694 344.734 169.939 332.43 174.962 327.293Z"/><path fill="#676065" d="M341.845 464.165C342.323 463.689 342.799 463.219 343.293 462.758C350.044 456.453 355.374 445.477 356.296 436.284C356.706 432.194 356.385 427.661 357.282 423.679C357.658 422.009 358.144 421.26 359.65 420.518C361.981 420.649 363.759 422.193 365.291 423.837C371.782 430.807 374.825 441.748 374.226 451.117C372.529 477.688 343.603 486.279 339.005 507.734C336.311 520.307 344.212 525.076 350.407 534.054C355.879 541.982 354.282 549.464 347.245 555.595C342.996 559.297 334.626 563.881 328.973 563.302C328.34 563.238 328.449 563.249 327.938 563.144C331.254 560.734 334.013 558.407 336.14 554.802C344.582 540.495 322.444 533.652 318.727 519.436C315.152 505.758 323.659 489.917 331.245 479.121C334.491 474.501 338.564 469.932 341.348 465.054L341.845 464.165Z"/><path fill="#FBDDC8" d="M582.959 154.713C586.305 155.155 591.293 158.263 594.349 159.82C611.055 168.331 626.159 177.341 639.723 190.438C664.107 214.201 678.196 246.581 678.962 280.62C669.525 277.281 659.983 275.725 650.05 277.802C638.717 280.171 630.157 287.228 623.948 296.802C606.704 323.391 616.025 354.005 627.688 380.768C630.625 387.507 635.321 394.897 636.694 402.085C637.07 404.055 637.045 405.773 635.759 407.436C632.661 411.443 623.039 411.417 618.382 411.794C612.478 412.272 598.005 412.683 594.407 417.946C593.695 418.988 593.708 419.94 594.096 421.096C594.679 422.829 596.421 424.314 598.074 424.968C605.236 427.801 629.407 426.057 636.728 422.893C642.343 420.466 647.362 416.313 649.57 410.471C651.195 406.169 651.254 401.299 650.038 396.888C648.012 389.542 642.735 383.034 639.52 376.147C635.348 367.212 632.375 357.761 628.111 348.847C636.501 352.476 645.597 354.683 654.554 351.55C660.581 349.442 665.277 344.848 667.95 339.092C669.103 336.61 670.313 332.984 668.994 330.332C668.35 329.037 667.485 328.589 666.203 328.086C661.305 328.416 656.951 335.076 652.592 337.438C645.226 341.43 634.155 336.858 626.785 334.6C626.172 325.148 627.451 315.066 632.445 306.849C637.108 299.176 645.025 294.779 653.567 292.755C659.241 291.411 670.112 289.974 675.17 293.371C676.347 294.161 676.902 294.865 677.12 296.304C678.103 302.791 674.588 314.045 673.551 320.925C672.943 324.963 672.841 329.002 672.858 333.079C672.912 345.982 675.984 358.588 676.49 371.461C677.674 401.591 669.253 431.808 656.244 458.792C652.869 465.794 648.933 472.534 645.312 479.411C638.616 492.128 633.054 508.06 624.89 519.531C618.288 528.808 609.292 534.321 598.07 536.162C589.583 537.555 580.895 536.977 572.395 536.001C542.138 532.526 513.195 521.217 487.539 504.952C477.529 498.606 468.911 490.842 459.313 484.043C457.7 482.901 455.444 481.127 453.355 481.767C452.084 482.156 451.05 482.997 450.482 484.203C449.762 485.735 450.028 487.329 450.735 488.79C453.675 494.858 459.348 500.274 464.268 504.737C487.094 525.449 514.603 536.818 543.134 547.171L548.978 549.353C546.358 562.396 544.235 575.535 542.615 588.74C540.534 606.777 538.223 640.698 550.416 655.018C552.005 656.884 554.675 658.309 557.148 658.362C558.49 658.39 559.78 658.002 560.69 656.96C562.199 655.235 562.11 652.411 561.854 650.279C561.235 645.138 558.864 640.047 557.669 634.991C555.66 626.49 555.914 617.34 556.01 608.654C575.804 615.162 594.741 627.585 613.124 637.446C608.692 642.632 605.165 648.446 602.273 654.617C592.437 675.6 592.243 698.505 599.984 720.149C592.918 722.457 585.654 724.124 578.611 726.524C566.912 730.511 555.619 735.62 544.466 740.919C534.723 745.548 525.664 752.194 515.627 756.052C506.417 746.213 497.383 736.282 487.746 726.85C458.858 698.884 427.764 673.29 394.768 650.315C383.062 642.217 371.169 634.394 359.098 626.853C350.902 621.742 340.772 616.824 333.694 610.344C338.466 606.29 343.794 602.83 348.752 598.999C362.971 588.013 376.422 575.85 386.659 560.979C411.095 525.484 421.228 477.402 413.517 435.164C420.751 434.585 427.838 432.802 434.485 429.889C449.417 423.393 459.56 411.875 465.366 396.78C475.202 371.206 474.166 341.558 465.828 315.75C463.288 307.887 459.872 300.428 456.522 292.887C460.106 285.125 464.877 277.604 469.256 270.268C487.38 239.904 508.316 214.089 536.745 192.83C552.875 180.768 569.959 170.381 582.959 154.713Z"/><path fill="#4B4A51" d="M549.771 282.71C555.045 282.191 560.724 282.523 565.951 283.39C571.615 284.328 584.155 287.971 587.31 292.809C588.272 294.284 588.693 296.197 588.096 297.898C587.261 300.276 584.794 301.562 582.429 301.856C578.129 302.392 573.034 299.693 568.767 298.901C550.828 295.573 533.857 298.602 516.985 304.998C508.365 308.438 501.125 313.669 492.834 317.481C491.272 318.2 490.249 318.473 488.577 317.828C487.677 316.945 487.189 316.303 487.149 314.985C487.074 312.528 489.028 310.473 490.537 308.737C504.609 292.551 528.96 284.212 549.771 282.71Z"/><path fill="#4B4A51" d="M624.404 448.494C624.912 448.462 625.421 448.425 625.929 448.435C627.91 448.475 630.407 448.853 631.708 450.534C632.506 451.564 632.648 452.865 632.437 454.113C631.728 458.301 628.271 461.834 624.842 464.051C612.987 471.715 585.176 466.159 571.718 463.569C568.984 462.883 565 462.107 563.24 459.677C562.462 458.603 562.014 457.435 562.296 456.094C562.624 454.534 563.85 453.396 565.317 452.879C568.251 451.847 577.113 453.188 580.624 453.214C587.756 453.267 595.202 452.086 602.275 452.64C606.364 452.961 610.706 454.531 614.816 453.873C618.297 453.316 621.572 450.449 624.404 448.494Z"/><path fill="#4B4A51" d="M567.434 335.447C568.43 335.28 569.493 335.2 570.456 335.599C571.603 336.075 572.253 336.826 572.511 338.047C572.877 339.771 571.887 342.027 571.124 343.516C567.056 351.45 558.552 357.286 550.157 359.85C537.378 363.754 524.899 360.55 513.45 354.467C510.481 352.517 506.094 349.136 505.664 345.276C505.511 343.911 505.765 343.651 506.515 342.597C512.551 339.544 523.202 345.215 529.784 346.426C544.915 349.212 555.366 343.888 567.434 335.447Z"/><path fill="#4B4A51" d="M615.428 476.174C617.464 475.936 618.902 476.333 620.614 477.407C621.241 478.505 621.515 478.885 621.323 480.207C621.039 482.164 618.895 484.182 617.392 485.272C611.25 489.724 602.957 490.023 595.761 488.833C594.453 488.479 593.174 488.1 591.96 487.488C590.067 486.535 589.169 485.505 588.479 483.528C588.578 482.66 588.488 482.037 589.047 481.318C589.927 480.187 591.115 479.605 592.463 479.188C596.009 478.093 600.331 478.276 604.024 477.928C607.853 477.567 611.645 476.853 615.428 476.174Z"/><path fill="#C5B2C5" d="M317.054 619.381C317.392 619.371 317.548 619.354 317.936 619.437C322.404 620.383 332.267 628.123 336.702 630.789C384.061 659.024 428.225 692.302 468.423 730.042C480.318 741.115 493.1 752.857 502.973 765.791C498.631 771.603 492.424 776.762 487.232 781.837C478.967 789.773 471.029 798.044 463.44 806.629C454.252 817.176 446.087 828.666 438.361 840.311C435.068 845.275 432.187 850.605 428.606 855.361L428.263 855.808C425.545 851.561 423.395 846.841 420.981 842.407C417.008 835.204 412.873 828.09 408.581 821.072C386.401 785.381 354.081 749.157 316.266 729.922C311.596 727.547 296.84 719.28 292.214 721.613C291.056 722.196 290.825 722.776 290.415 723.889C291.765 731.459 324.183 750.544 331.684 756.752C355.312 776.304 372.916 796.831 390.954 821.371C402.157 837.006 410.808 854.175 419.07 871.49C432.686 900.024 444.685 928.754 451.409 959.788C435.426 960.282 411.493 954.622 395.708 950.987C328.866 935.593 262.992 904.455 211.205 859.074C198.198 847.676 185.221 835.074 176.068 820.301C166.062 804.152 165.029 791.809 169.442 773.46C172.698 759.922 177.935 746.448 184.129 734.002C202.979 696.122 231.012 669.529 266.841 647.534C283.214 637.483 300.684 629.381 317.054 619.381Z"/><path fill="#B7CDC0" d="M788.767 760.369C799.618 765.076 809.912 766.546 821.65 765.339C806.487 829.315 730.455 877.39 673.486 900.184C660.383 905.427 646.94 910.254 633.397 914.23C625.395 916.58 616.962 918.138 609.161 921.069C607.068 921.855 604.201 923.046 602.869 924.933C602.182 925.905 601.793 926.899 602.108 928.096C602.478 929.505 603.574 930.561 604.901 931.084C616.4 935.62 669.638 917.3 682.312 912.209C733.131 891.797 786.398 858.1 816.992 811.67C825.311 799.045 831.31 785.806 837.223 771.948C840.881 783.227 842.578 793.851 841.437 805.716C838.459 836.696 813.118 859.979 790.415 878.6C715.015 938.664 609.166 963.994 514.343 964.107C498.827 964.126 483.22 963.849 467.769 962.298C460.282 936.956 452.902 911.921 443.36 887.235C448.062 881.196 453.964 875.939 459.453 870.613C465.008 865.225 470.587 860.056 476.867 855.499C508.936 832.231 551.24 819.468 589.982 813.522C618.061 809.213 646.488 807.473 674.544 802.938C712.943 796.733 757.066 783.569 788.767 760.369Z"/><path fill="#FBDDC8" d="M744.06 540.709C760.868 539.573 778.986 542.877 794.514 549.315C819.396 559.591 839.148 579.372 849.39 604.268C862.363 636.023 857.928 666.283 845.095 697.04C836.705 695.289 827.831 694.826 820.031 699.021C817.196 700.546 814.003 702.998 813.384 706.391C813.146 707.693 813.27 708.847 814.174 709.88C817.75 713.965 830.426 708.47 837.022 709.639C839.622 710.1 842.47 711.103 843.931 713.461C846.146 717.033 844.877 723.293 843.814 727.168C841.571 735.348 835.375 743.293 827.922 747.344C817.933 752.772 806.386 751.737 795.891 748.593C797.37 745.517 798.925 743.095 798.065 739.602C797.493 738.969 797.275 738.486 796.405 738.27C794.06 737.688 791.484 738.891 789.491 740.039C785.397 742.399 781.667 746.045 777.942 748.993C772.528 753.277 766.969 757.021 760.964 760.423C749.078 766.76 736.529 770.777 723.079 771.883C692.317 774.414 658.354 765.335 634.755 745.022C620.375 732.646 609.514 715.003 608.215 695.787C606.845 675.523 613.752 657.579 627.024 642.414C630.921 637.961 635.985 634.471 638.831 629.175C641.75 623.743 643.508 617.318 645.629 611.503C650.266 598.789 657.217 587.794 666.142 577.637C686.832 554.091 713.149 542.808 744.06 540.709Z"/><path fill="#4B4A51" d="M727.522 655.489C728.197 655.465 728.561 655.44 729.263 655.473C734.299 655.707 738.725 667.916 742.324 671.549C749.637 678.929 758.361 674.912 767.139 675.494C768.569 675.589 769.508 675.937 770.335 677.189C771.05 678.271 771.122 679.502 770.851 680.726C770.225 683.559 767.556 685.6 765.32 687.139C760.615 689.399 755.369 690.289 750.181 689.706C741.756 688.829 733.347 684.164 728.056 677.565C724.93 673.667 722.157 668.155 722.918 663.01C723.434 659.522 724.742 657.558 727.522 655.489Z"/><path fill="#4B4A51" d="M659.379 615.869C660.185 615.992 661.012 616.115 661.794 616.352C667.461 618.074 667.914 627.716 670.566 632.279C670.674 632.464 670.785 632.646 670.895 632.83C677.7 636.964 682.317 633.91 689.433 634.348C691.517 634.476 692.735 634.966 694.077 636.555C694.556 637.922 694.791 639.002 694.364 640.432C693.497 643.332 690.427 644.765 687.991 646.137C685.186 647.243 682.469 648.236 679.444 648.568C672.988 649.279 666.691 647.565 661.694 643.356C657.6 639.908 654.776 635.024 654.401 629.634C654.039 624.427 655.918 619.688 659.379 615.869Z"/><path fill="#4B4A51" d="M672.667 658.883C673.27 658.907 674.145 658.883 674.744 659.065C678.14 660.097 680.558 666.235 682.71 668.964C686.703 674.026 698.419 676.509 700.803 681.852C701.099 682.515 701.207 683.286 700.929 683.962C700.154 685.845 698.195 686.336 696.445 686.96C688.862 687.672 681.423 685.813 675.307 681.219C671.808 678.591 668.723 675.035 668.231 670.529C667.76 666.217 669.968 662.071 672.667 658.883Z"/><path fill="#4B4A51" d="M652.912 696.497C658.51 697.886 661.857 703.133 666.697 705.928C671.873 708.917 683.775 708.356 686.961 713.574C687.363 714.231 687.538 714.96 687.351 715.702C686.83 717.775 685.291 718.683 683.564 719.67C680.406 720.28 677.3 720.594 674.091 720.337C665.991 719.689 658.364 716.021 653.159 709.7C651.118 707.22 649.427 704.434 649.864 701.1C650.155 698.884 651.193 697.803 652.912 696.497Z"/><path fill="#676065" d="M352.676 255.706C358.336 254.837 365.036 255.178 370.706 255.643C395.412 257.667 416.614 268.594 432.559 287.602C450.325 308.781 459.881 339.099 457.342 366.595C456.174 379.253 452.651 397.836 442.019 406.291C437.634 409.777 432.092 410.775 426.606 410.136C418.71 409.216 412.075 404.246 407.362 398.077C395.013 381.912 397.789 359.085 408.504 342.908C410.127 340.458 415.257 336.377 415.5 333.716C415.664 331.91 415.24 330.089 413.935 328.767C412.86 327.678 411.258 327.204 409.752 327.349C405.905 327.72 400.225 333.804 397.817 336.762C387.888 348.958 383.93 365.182 385.588 380.679C387.075 394.571 391.99 405.12 402.874 413.962C393.454 414.19 384.853 413.356 376.816 407.951C365.254 400.175 358.484 386.231 355.99 372.875C352.748 355.508 355.823 333.917 368.455 320.676C371.091 317.914 377.085 315.294 378.799 312.068C379.439 310.863 379.536 309.833 379.046 308.544C378.565 307.279 377.801 306.406 376.501 305.951C372.427 304.526 366.83 308.069 363.406 310.005C356.35 315.247 350.917 322.224 347.119 330.111C336.403 352.36 341.133 377.309 348.949 399.6C334.91 390.614 321.364 377.54 315.198 361.769C309.174 346.362 311.214 325.16 323.25 312.938C326.172 309.97 332.142 306.971 333.558 302.914C333.92 301.877 334.005 300.762 333.359 299.812C332.576 298.66 330.731 297.85 329.372 297.68C325.588 297.206 319.399 300.923 316.44 303.097C306.477 310.418 301.141 323.222 299.431 335.137C296.493 355.598 303.918 375.761 317.244 391.157C322.006 396.658 327.716 401.607 332.025 407.456C332.148 407.623 332.267 407.793 332.388 407.961C318.583 407.588 306.092 401.616 295.556 392.827C280.379 380.167 271.536 362.076 269.817 342.503C268.111 323.063 275.016 302.312 287.568 287.451C303.871 268.151 327.832 257.758 352.676 255.706Z"/><path fill="#676065" d="M553.821 135.214C573.714 134.229 595.623 137.558 614.162 144.579C638.768 153.897 655.029 171.677 665.721 195.245C658.891 187.354 651.704 180.112 643.482 173.652C628.875 162.175 612.831 153.75 595.457 147.308C589.181 144.981 582.697 142.234 575.892 143.063C570.042 147.18 562.528 156.403 556.164 161.595C544.004 171.514 530.851 180.133 518.55 189.857C506.335 199.629 495.138 210.611 485.132 222.635C480.507 228.505 475.749 234.194 471.385 240.275C462.314 252.914 454.301 266.15 446.173 279.403C424.715 255.875 408.11 246.364 376.793 240.7C381.928 233.247 387.508 226.111 393.502 219.331C423.388 185.661 462.986 156.307 506.495 143.216C521.978 138.557 537.708 136.158 553.821 135.214Z"/><path fill="#676065" d="M231.369 252.9C238.492 253.046 246.067 255.165 253.284 255.811C252.174 262.483 251.221 269.181 250.428 275.898C249.186 286.773 248.461 302.641 250.909 313.454C251.837 317.553 253.69 321.425 254.285 325.605C255.118 331.458 254.235 337.709 254.556 343.634C255.537 361.24 262.009 378.096 273.063 391.834C291.65 415.003 314.135 422.147 342.633 425.211C342.646 426.366 342.641 427.522 342.617 428.676C342.424 437.443 339.57 445.967 332.989 452.031C326.255 458.238 316.6 460.459 307.644 459.898C296.202 459.09 285.549 453.774 278.024 445.118C269.924 435.873 267.986 426.123 268.773 414.154C268.907 412.586 269.108 410.981 268.345 409.529C265.281 403.7 244.501 406.136 238.04 405.561C232.627 405.08 227.207 403.7 222.102 401.859C208.728 397.034 198.074 387.756 192.017 374.824C186.263 362.541 186.166 349.966 190.778 337.331L203.554 340.388C204.385 342.231 205.228 344.07 206.081 345.903C211.57 357.706 219.909 369.612 232.677 374.155C236.889 375.654 246.232 377.589 250.062 374.984C251.444 374.044 251.64 372.194 251.788 370.695C250.011 367.225 241.783 363.821 238.409 361.394C235.562 359.347 232.716 357.03 230.207 354.582C217.664 342.346 212.017 324.244 211.941 307.087C211.857 288.229 217.813 266.637 231.369 252.9Z"/><path fill="#B7CDC0" d="M604.116 734.623C604.483 734.549 605.611 734.452 605.919 734.599C608.01 735.598 614.631 745.056 616.749 747.412C635.986 768.801 659.293 779.022 686.846 784.497C679.604 786.924 671.643 787.997 664.12 789.222C652.52 791.162 640.874 792.812 629.192 794.172C572.028 800.885 538.282 804.725 486.547 832.547C468.184 842.476 454.272 856.147 438.617 869.626C445.179 860.411 449.808 849.734 455.995 840.2C462.97 829.453 471.285 819.705 479.944 810.292C512.991 774.37 555.817 744.918 604.116 734.623Z"/><path fill="#FBDDC8" d="M517.855 102.219C517.886 102.216 517.916 102.212 517.947 102.211C545.466 101.005 577.311 105.645 598.715 124.323C581.49 121.519 564.933 119.949 547.457 121.129C480.106 125.676 420.61 166.384 377.341 216.012C370.836 223.865 364.963 231.862 359.401 240.407C346.906 240.655 335.096 242.722 323.008 245.762C330.702 220.953 347.246 197.354 364.369 178.15C403.766 133.963 458.581 105.653 517.855 102.219Z"/><path fill="#FBDDC8" d="M259.811 96.2039C260.177 96.1695 260.543 96.1404 260.911 96.1168C278.66 94.9749 300.524 99.8116 314.085 111.898C325.699 122.249 332.761 138.635 333.604 154.057C334.752 175.053 325.854 193.8 312.04 209.187C298.2 224.603 278.032 237.982 256.768 238.942C243.636 239.535 229.071 236.062 219.193 227.007C209.661 218.268 206.621 211.068 206.057 198.18C215.512 200.971 225.169 203.646 235.125 203.249C239.25 203.085 243.377 202.356 247.491 202.252C250.68 202.171 253.854 203.342 257.081 203.314C266.531 203.231 276.652 200.074 285.628 197.245C296.437 193.137 305.108 186.044 310.931 175.986C317.028 165.455 318.076 153.023 314.86 141.365C311.482 128.881 303.226 118.28 291.95 111.946C280.32 105.357 267.451 104.209 254.645 107.832C239.532 112.107 225.879 122.586 218.33 136.409C212.231 147.576 209.633 161.456 213.236 173.847C214.512 178.236 216.724 182.26 217.983 186.631C218.025 186.775 218.063 186.92 218.103 187.064C215.202 186.089 212.689 185.032 210.257 183.134C203.746 178.052 200.477 170.665 199.646 162.62C198.087 147.528 203.437 131.695 213.007 120.054C224.926 105.557 241.339 97.9671 259.811 96.2039Z"/><path fill="#676065" d="M687.052 236.062C696.586 235.461 706.137 236.959 715.03 240.451C731 246.573 743.33 258.613 750.2 274.225C758.95 294.112 758.601 317.371 750.747 337.502C742.754 357.991 726.82 373.931 706.733 382.766C720.353 366.49 730.307 351.9 731.722 330.124C731.968 320.041 729.872 309.883 724.314 301.345C721.796 297.478 717.402 291.407 712.562 290.675C711.221 290.472 709.499 291.741 708.537 292.549C707.783 294.04 707.843 295.204 708.342 296.753C709.536 300.464 712.263 303.683 713.99 307.154C717.264 313.732 718.385 324.008 717.791 331.251C716.362 348.675 705.767 363.487 692.805 374.548C689.304 360.786 686.754 344.02 688.522 329.96C690.117 317.262 693.362 305.121 694.011 292.23C694.985 272.885 691.592 254.744 687.052 236.062Z"/><path fill="#FBDDC8" d="M318.804 61.6825C322.768 61.0365 327.228 61.1649 331.222 61.5943C343.231 62.8854 354.324 68.2989 361.926 77.8172C369.217 87.0916 372.51 98.89 371.076 110.6C369.338 125.444 358.84 143.222 347.181 152.359C345.876 147.747 345.007 142.965 343.992 138.279C341.304 128.976 338.196 120.136 333.049 111.87C324.327 97.8586 311.293 88.828 295.349 84.8264C289.058 83.2477 282.581 82.384 276.253 80.9065C287.107 70.6335 304.07 63.5507 318.804 61.6825Z"/><path fill="#676065" d="M196.019 225.998C197.078 225.946 197.694 225.619 198.529 226.339C201.239 228.676 203.109 232.617 205.541 235.338C209.197 239.429 214.241 243.063 218.422 246.635C200.395 271.339 193.279 292.715 197.691 323.324L191.685 320.097C182.18 313.891 174.033 306.077 168.88 295.841C163.039 284.238 162.337 269.387 166.546 257.149C171.582 242.506 182.451 232.681 196.019 225.998Z"/><path fill="#676065" d="M448.108 81.25C469.778 79.4204 491.602 81.4561 512.56 87.2621C466.761 90.1121 423.618 108.305 387.643 136.407C381.033 141.54 374.643 147.159 368.484 152.822C363.485 157.417 358.346 164.243 352.293 167.202C353.359 166.168 354.409 165.117 355.443 164.051C378.316 140.535 387.409 128.539 386.941 94.9654C405.457 86.374 427.935 83.0734 448.108 81.25Z"/><path fill="#FBDDC8" d="M263.18 121.156C270.284 120.385 277.27 121.17 283.691 124.424C292.189 128.714 298.601 136.243 301.483 145.315C303.938 153.166 303.567 162.075 299.617 169.382C295.542 176.922 288.884 181.39 280.83 183.827C282.175 182.122 283.473 180.285 284.41 178.324C288.871 168.992 288.805 157.07 285.148 147.498C282.811 141.38 278.607 135.4 272.412 132.781C266.716 130.374 261.372 131.285 255.836 133.48C252.722 135.033 249.938 137.016 247.614 139.623C243.093 144.695 241.05 151.282 241.497 158.028C242.238 169.228 248.396 178.187 256.576 185.413C254.453 185.937 252.317 186.405 250.17 186.818C245.079 187.771 239.912 187.181 235.63 184.1C230.326 180.284 227.474 173.665 226.474 167.36C224.843 157.072 227.749 146.376 233.916 138.036C241.052 128.386 251.486 122.979 263.18 121.156Z"/><path fill="#676065" d="M313.957 229.962C314.078 232.959 306.889 249.746 305.19 253.479C300.805 256.736 295.952 259.424 291.51 262.64C280.848 270.358 272.985 280.089 265.465 290.725C263.887 284.107 267.039 260.398 269.222 254.417C285.742 249.296 300.937 241.494 313.957 229.962Z"/><path fill="#FBDDC8" d="M264.263 146.088C266.27 146.388 267.962 146.923 269.459 148.349C272.887 151.612 274.139 157.165 274.215 161.721C274.277 165.457 273.499 171.438 270.364 174.009C269.102 175.044 268.783 174.865 267.241 174.692C261.762 171.416 257.772 166.137 256.116 159.972C255.342 157.008 255.233 153.587 256.877 150.88C258.613 148.019 261.176 146.961 264.263 146.088Z"/></svg>